<svg width="40" height="40" viewBox="0 0 40 40" fill="none" xmlns="http://www.w3.org/2000/svg">
<path d="M38.7157 11.2534L38.7157 11.2534C38.2475 14.1438 36.6507 16.4801 34.9602 18.2136C33.2708 19.9459 31.5155 21.0476 30.7886 21.4669L30.7871 21.4678C30.719 21.5074 30.6348 21.5075 30.5665 21.4677L30.5646 21.4666C29.7679 21.0081 27.7386 19.7306 25.914 17.7034C24.0902 15.6771 22.5006 12.9365 22.5006 9.53669H22.5006L22.5005 9.53105C22.4751 7.27835 23.3701 5.11291 24.9783 3.5354C26.5859 1.95851 28.7673 1.10561 31.018 1.17371C35.9746 1.37947 39.5395 6.17161 38.7157 11.2534Z" fill="#FD773B" stroke="white"/>
<path fill-rule="evenodd" clip-rule="evenodd" d="M24.6621 9.33398C24.6621 6.02028 27.3485 3.33398 30.6621 3.33398C33.9758 3.33398 36.6621 6.02028 36.6621 9.33398C36.6621 12.6477 33.9758 15.334 30.6621 15.334C27.3485 15.334 24.6621 12.6477 24.6621 9.33398Z" fill="white"/>
<path d="M17.3817 25.9193L17.3817 25.9194C16.9135 28.8099 15.3167 31.1461 13.6262 32.8796C11.9369 34.6119 10.1816 35.7136 9.45473 36.133L9.4533 36.1338C9.38504 36.1735 9.30079 36.1735 9.23254 36.1338L9.23064 36.1327C8.43393 35.6742 6.40469 34.3966 4.58004 32.3694C2.75623 30.3431 1.16657 27.6025 1.16657 24.2028H1.1666L1.16654 24.1971C1.14117 21.9445 2.03609 19.7789 3.64433 18.2015L3.64434 18.2015C5.25197 16.6246 7.43321 15.7716 9.684 15.8397C14.6406 16.0455 18.2056 20.8377 17.3817 25.9193Z" fill="#22B9D4" stroke="white"/>
<path fill-rule="evenodd" clip-rule="evenodd" d="M3.33008 24C3.33008 20.6863 6.01637 18 9.33004 18C12.6438 18 15.33 20.6863 15.33 24C15.33 27.3137 12.6438 30 9.33004 30C6.01637 30 3.33008 27.3137 3.33008 24Z" fill="white"/>
<path d="M22.8327 27C22.8327 28.5648 24.1012 29.8333 25.666 29.8333H34.3327C36.818 29.8333 38.8327 31.848 38.8327 34.3333C38.8327 36.8186 36.818 38.8333 34.3327 38.8333H1.99935C1.53911 38.8333 1.16602 38.4602 1.16602 38C1.16602 37.5398 1.53911 37.1667 1.99935 37.1667H34.3327C35.8975 37.1667 37.166 35.8982 37.166 34.3333C37.166 32.7685 35.8975 31.5 34.3327 31.5H25.666C23.1807 31.5 21.166 29.4853 21.166 27C21.166 24.5147 23.1807 22.5 25.666 22.5H37.9994C38.4596 22.5 38.8327 22.8731 38.8327 23.3333C38.8327 23.7936 38.4596 24.1667 37.9994 24.1667H25.666C24.1012 24.1667 22.8327 25.4352 22.8327 27Z" fill="#0E4A66" stroke="white"/>
</svg>
