<svg width="36" height="36" viewBox="0 0 36 36" fill="none" xmlns="http://www.w3.org/2000/svg">
<path d="M34.9657 34.6414L34.9658 34.6416C35.103 34.9533 34.773 35.2666 34.4679 35.1113L27.9553 31.7955L27.7148 31.673L27.4805 31.8068C25.7885 32.7731 23.836 33.3327 21.7493 33.3327C15.3521 33.3327 10.166 28.1465 10.166 21.7493C10.166 15.3521 15.3521 10.166 21.7493 10.166C28.1465 10.166 33.3327 15.3521 33.3327 21.7493C33.3327 23.7482 32.827 25.628 31.9365 27.2682L31.8196 27.4836L31.9182 27.708L34.9657 34.6414Z" fill="#FD773B" stroke="white"/>
<path d="M15.9166 22.1667H29.2499C29.48 22.1667 29.6667 21.98 29.6667 21.7501V20.9167C29.6667 20.6867 29.48 20.5 29.2499 20.5H15.9166C15.6866 20.5 15.5 20.6867 15.5 20.9167V21.7501C15.5 21.98 15.6866 22.1667 15.9166 22.1667Z" fill="white"/>
<path d="M15.9166 25.5006H26.75C26.9799 25.5006 27.1666 25.314 27.1666 25.084V24.2506C27.1666 24.0206 26.9799 23.834 26.75 23.834H15.9166C15.6866 23.834 15.5 24.0206 15.5 24.2506V25.084C15.5 25.314 15.6866 25.5006 15.9166 25.5006Z" fill="white"/>
<path d="M9.66602 21.7493C9.66602 22.9018 9.83761 24.0119 10.1385 25.0676C11.211 25.3394 12.3268 25.4994 13.4826 25.4994C21.031 25.4994 27.151 19.3434 27.151 11.7493C27.151 11.4735 27.126 11.2044 27.1102 10.9326C25.4926 10.1293 23.6776 9.66602 21.7493 9.66602C15.076 9.66602 9.66602 15.076 9.66602 21.7493Z" fill="url(#paint0_radial_1537_415)" fill-opacity="0.15"/>
<path d="M3.70737 16.739L3.79752 16.5312L3.70075 16.3264C3.04307 14.9345 2.66617 13.388 2.66617 11.75C2.66617 5.81281 7.47899 1 13.4162 1C19.3534 1 24.1662 5.81281 24.1662 11.75C24.1662 17.6872 19.3534 22.5 13.4162 22.5C11.1633 22.5 9.07624 21.8051 7.34889 20.621L7.10394 20.453L6.83929 20.5878L1.53182 23.2903C1.53181 23.2903 1.5318 23.2903 1.5318 23.2903C1.22744 23.4452 0.896196 23.133 1.03392 22.8195C1.03392 22.8195 1.03392 22.8195 1.03393 22.8195L3.67308 16.8145L3.68324 16.7914L3.68457 16.7872L3.68727 16.7819C3.69219 16.7721 3.69954 16.7571 3.70737 16.739ZM3.67847 16.7993L3.67851 16.7992L3.67847 16.7993Z" fill="#0E4A66" stroke="white"/>
<path d="M6.7487 10.5006H20.082C20.3121 10.5006 20.4987 10.314 20.4987 10.084V9.25061C20.4987 9.02059 20.3121 8.83398 20.082 8.83398H6.7487C6.5187 8.83398 6.33203 9.02059 6.33203 9.25061V10.084C6.33203 10.314 6.5187 10.5006 6.7487 10.5006Z" fill="white"/>
<path d="M6.7487 13.8327H17.5821C17.812 13.8327 17.9987 13.646 17.9987 13.416V12.5827C17.9987 12.3527 17.812 12.166 17.5821 12.166H6.7487C6.5187 12.166 6.33203 12.3527 6.33203 12.5827V13.416C6.33203 13.646 6.5187 13.8327 6.7487 13.8327Z" fill="white"/>
<defs>
<radialGradient id="paint0_radial_1537_415" cx="0" cy="0" r="1" gradientUnits="userSpaceOnUse" gradientTransform="translate(12.1051 11.9502) scale(13.4275)">
<stop offset="0.627"/>
<stop offset="1" stop-opacity="0"/>
</radialGradient>
</defs>
</svg>
