<svg width="49" height="39" viewBox="0 0 49 39" fill="none" xmlns="http://www.w3.org/2000/svg">
<path d="M24.7635 1.84724L28.508 7.86886L28.6355 8.07388L28.8753 8.10153L36.9781 9.03583L31.2036 13.5026L30.9542 13.6955L31.0209 14.0037L32.4114 20.437L24.956 17.3267L24.7635 17.2464L24.571 17.3267L17.1156 20.437L18.5062 14.0037L18.5728 13.6955L18.3234 13.5026L12.5489 9.03583L20.6517 8.10153L20.8915 8.07388L21.019 7.86886L24.7635 1.84724Z" fill="#FD773B" stroke="white"/>
<path fill-rule="evenodd" clip-rule="evenodd" d="M22.3809 11.0832C22.3809 10.0287 23.4469 9.17383 24.7618 9.17383C26.0767 9.17383 27.1427 10.0287 27.1427 11.0832C27.1427 12.1378 26.0767 12.9925 24.7618 12.9925C23.4469 12.9925 22.3809 12.1378 22.3809 11.0832Z" fill="#0E4A66"/>
<path d="M26.3505 13.6309H23.1759C21.8609 13.6309 20.7949 14.4857 20.7949 15.5402V19.4417H20.8029L24.7632 17.7869L28.7235 19.4417H28.7315V15.5402C28.7315 14.4857 27.6654 13.6309 26.3505 13.6309Z" fill="#0E4A66"/>
<path d="M2.24609 30.041H13.9445V37.315H2.24609V30.041Z" fill="#0E4A66" stroke="white"/>
<path d="M14.9453 24.3125H34.5803V37.3145H14.9453V24.3125Z" fill="#22B9D4" stroke="white"/>
<path d="M35.5801 30.041H47.2785V37.315H35.5801V30.041Z" fill="#0E4A66" stroke="white"/>
<path d="M5.42188 18.7219C5.42188 18.0409 6.15537 17.3125 7.30284 17.3125C8.45029 17.3125 9.18379 18.0409 9.18379 18.7219C9.18379 19.4029 8.45031 20.1313 7.30284 20.1313C6.15535 20.1313 5.42188 19.4029 5.42188 18.7219Z" fill="#0E4A66" stroke="white"/>
<path d="M5.71493 21.7676H8.88954C10.037 21.7676 10.7705 22.496 10.7705 23.1769V26.4957H3.83398V23.1769C3.83398 22.496 4.56746 21.7676 5.71493 21.7676Z" fill="#0E4A66" stroke="white"/>
<path d="M40.3418 18.7219C40.3418 18.0409 41.0753 17.3125 42.2227 17.3125C43.3702 17.3125 44.1037 18.0409 44.1037 18.7219C44.1037 19.4029 43.3703 20.1313 42.2227 20.1313C41.0753 20.1313 40.3418 19.4029 40.3418 18.7219Z" fill="#0E4A66" stroke="white"/>
<path d="M40.3498 21.4883H43.5243C44.6718 21.4883 45.4053 22.2167 45.4053 22.8976V26.2164H38.4688V22.8976C38.4688 22.2167 39.2022 21.4883 40.3498 21.4883Z" fill="#0E4A66" stroke="white"/>
<path d="M34.0002 3.11111L33.5233 2.91986L34.4057 1.50474L34.8826 1.696L34.0002 3.11111Z" fill="#22B9D4" stroke="white"/>
<path d="M42.1118 7.91783L42.0059 7.64212L44.0614 7.13422L44.1673 7.40995L42.1118 7.91783Z" fill="#22B9D4" stroke="white"/>
<path d="M15.5248 3.11112L14.6424 1.69598L15.1194 1.50473L16.0017 2.91987L15.5248 3.11112Z" fill="#22B9D4" stroke="white"/>
<path d="M7.41288 7.91785L5.35742 7.40991L5.46335 7.13422L7.51883 7.64211L7.41288 7.91785Z" fill="#22B9D4" stroke="white"/>
<path d="M24.7629 28.4596L29.0161 31.302L30.0335 30.3244L25.2716 27.1421C24.977 26.9448 24.5487 26.9448 24.2542 27.1421L19.4922 30.3244L20.5097 31.302L24.7629 28.4596Z" fill="white"/>
<path d="M24.7629 31.6412L29.0161 34.4836L30.0335 33.506L25.2716 30.3237C24.977 30.1265 24.5487 30.1265 24.2542 30.3237L19.4922 33.506L20.5097 34.4836L24.7629 31.6412Z" fill="white"/>
</svg>
