<svg width="343" height="982" viewBox="0 0 343 982" fill="none" xmlns="http://www.w3.org/2000/svg">
<path d="M7 0H343V982H7V0Z" fill="#22B9D4" fill-opacity="0.13"/>
<path d="M289.062 443.56C289.489 443.236 289.712 442.689 289.593 442.128C281.189 403.421 245.022 372.706 205.464 370.685C204.682 370.642 204.019 371.246 203.977 372.028C203.937 372.808 204.538 373.476 205.319 373.514C243.646 375.468 278.687 405.227 286.826 442.732C286.99 443.495 287.749 443.979 288.512 443.818C288.712 443.771 288.902 443.681 289.062 443.56Z" fill="#22B9D4"/>
<path d="M26.9624 673.014C26.6827 673.471 26.6749 674.061 26.9908 674.54C48.9338 707.516 93.812 722.924 131.382 710.376C132.126 710.132 132.523 709.327 132.277 708.584C132.029 707.843 131.226 707.441 130.485 707.69C94.0859 719.849 50.6047 704.921 29.3461 672.969C28.9152 672.318 28.0323 672.144 27.3807 672.573C27.2112 672.69 27.0671 672.843 26.9624 673.014Z" fill="#22B9D4"/>
<path d="M333.806 250.775L340.579 259.688L331.748 266.528L324.973 257.613L333.806 250.775Z" fill="#22B9D4"/>
<path d="M311.467 282.194L316.105 278.601L309.33 269.686L300.496 276.523L305.731 283.411C306.188 283.322 306.637 283.267 307.091 283.177C308.567 282.886 310.015 282.531 311.467 282.194Z" fill="#22B9D4"/>
<path d="M328.348 239.357L321.574 230.445L330.406 223.607L337.181 232.52L328.348 239.357Z" fill="#22B9D4"/>
<path d="M303.906 258.272L297.135 249.357L305.966 242.52L312.739 251.435L303.906 258.272Z" fill="#22B9D4"/>
<path d="M330.912 195.897L337.687 204.815L328.854 211.652L322.078 202.735L330.912 195.897Z" fill="#22B9D4"/>
<path d="M306.474 214.813L313.247 223.731L304.416 230.57L297.643 221.653L306.474 214.813Z" fill="#22B9D4"/>
<path d="M282.046 233.739L288.819 242.654L279.988 249.491L273.215 240.576L282.046 233.739Z" fill="#22B9D4"/>
<path d="M325.451 184.482L318.676 175.567L327.507 168.729L334.285 177.647L325.451 184.482Z" fill="#22B9D4"/>
<path d="M301.014 203.402L294.24 194.485L303.072 187.647L309.845 196.562L301.014 203.402Z" fill="#22B9D4"/>
<path d="M276.582 222.317L269.807 213.402L278.638 206.564L285.413 215.482L276.582 222.317Z" fill="#22B9D4"/>
<path d="M328.025 141.02L334.8 149.935L325.967 156.772L319.191 147.861L328.025 141.02Z" fill="#22B9D4"/>
<path d="M303.587 159.939L310.363 168.854L301.529 175.692L294.754 166.779L303.587 159.939Z" fill="#22B9D4"/>
<path d="M279.15 178.86L285.921 187.775L277.09 194.613L270.316 185.7L279.15 178.86Z" fill="#22B9D4"/>
<path d="M254.714 197.779L261.49 206.694L252.658 213.532L245.883 204.616L254.714 197.779Z" fill="#22B9D4"/>
<path d="M349.124 94.9434L355.898 103.858L347.066 110.696L340.293 101.781L349.124 94.9434Z" fill="#22B9D4"/>
<path d="M324.691 113.864L331.466 122.777L322.633 129.616L315.857 120.701L324.691 113.864Z" fill="#22B9D4"/>
<path d="M298.131 148.524L291.357 139.612L300.189 132.774L306.962 141.689L298.131 148.524Z" fill="#22B9D4"/>
<path d="M273.693 167.44L266.92 158.53L275.753 151.69L282.524 160.605L273.693 167.44Z" fill="#22B9D4"/>
<path d="M249.26 186.361L242.486 177.446L251.318 170.608L258.091 179.523L249.26 186.361Z" fill="#22B9D4"/>
<path d="M346.141 79.6768L339.365 70.7617L348.199 63.9268L354.972 72.8396L346.141 79.6768Z" fill="#22B9D4"/>
<path d="M323.825 82.8516L330.599 91.7644L321.767 98.6016L314.994 89.6866L323.825 82.8516Z" fill="#22B9D4"/>
<path d="M297.269 117.513L290.498 108.598L299.332 101.761L306.103 110.676L297.269 117.513Z" fill="#22B9D4"/>
<path d="M272.838 136.43L266.062 127.517L274.896 120.678L281.669 129.593L272.838 136.43Z" fill="#22B9D4"/>
<path d="M248.401 155.346L241.625 146.433L250.458 139.596L257.23 148.511L248.401 155.346Z" fill="#22B9D4"/>
<path d="M226.081 158.532L232.857 167.445L224.025 174.284L217.25 165.369L226.081 158.532Z" fill="#22B9D4"/>
<path d="M342.837 52.5261L351.671 45.6889L348.19 41.108C346.5 40.1032 344.792 39.1249 343.06 38.1973L336.066 43.6133L342.837 52.5261Z" fill="#22B9D4"/>
<path d="M318.373 71.4397L311.602 62.5247L320.433 55.6875L327.204 64.6025L318.373 71.4397Z" fill="#22B9D4"/>
<path d="M293.938 90.3586L287.162 81.448L295.996 74.6064L302.771 83.5215L293.938 90.3586Z" fill="#22B9D4"/>
<path d="M269.504 109.277L262.729 100.362L271.562 93.5244L278.333 102.439L269.504 109.277Z" fill="#22B9D4"/>
<path d="M245.062 128.193L238.291 119.278L247.125 112.44L253.896 121.355L245.062 128.193Z" fill="#22B9D4"/>
<path d="M220.637 147.114L213.863 138.199L222.695 131.361L229.468 140.274L220.637 147.114Z" fill="#22B9D4"/>
<path d="M318.849 43.7229L327.683 36.8857L321.771 29.1055C321.222 28.9292 320.676 28.7507 320.125 28.5811L312.078 34.8123L318.849 43.7229Z" fill="#22B9D4"/>
<path d="M294.382 62.6367L287.611 53.7217L296.443 46.8867L303.214 55.7995L294.382 62.6367Z" fill="#22B9D4"/>
<path d="M272.066 65.8125L278.839 74.7275L270.006 81.5647L263.232 72.6497L272.066 65.8125Z" fill="#22B9D4"/>
<path d="M247.63 84.7305L254.401 93.6455L245.57 100.485L238.799 91.5699L247.63 84.7305Z" fill="#22B9D4"/>
<path d="M223.187 103.651L229.962 112.566L221.129 119.404L214.355 110.489L223.187 103.651Z" fill="#22B9D4"/>
<path d="M198.755 122.572L205.528 131.487L196.699 138.327L189.924 129.412L198.755 122.572Z" fill="#22B9D4"/>
<path d="M291.08 35.4867L299.914 28.6496L296.047 23.5619C293.687 23.3019 291.307 23.1256 288.921 23L284.305 26.5739L291.08 35.4867Z" fill="#22B9D4"/>
<path d="M266.615 54.4006L259.84 45.4856L268.673 38.6484L275.449 47.5634L266.615 54.4006Z" fill="#22B9D4"/>
<path d="M242.18 73.3193L235.406 64.4065L244.238 57.5693L251.011 66.4821L242.18 73.3193Z" fill="#22B9D4"/>
<path d="M217.742 92.2395L210.967 83.3245L219.8 76.4873L226.576 85.4001L217.742 92.2395Z" fill="#22B9D4"/>
<path d="M193.31 111.157L186.537 102.242L195.368 95.4023L202.144 104.317L193.31 111.157Z" fill="#22B9D4"/>
<path d="M271.494 23.2754C269.344 23.4517 267.189 23.6896 265.029 23.9761L267.087 26.6841L271.494 23.2754Z" fill="#22B9D4"/>
<path d="M242.627 45.6023L235.852 36.6851L244.685 29.8457L251.461 38.7607L242.627 45.6023Z" fill="#22B9D4"/>
<path d="M218.192 64.5188L211.414 55.6016L220.248 48.7666L227.023 57.6816L218.192 64.5188Z" fill="#22B9D4"/>
<path d="M193.754 83.438L186.979 74.5208L195.812 67.6836L202.585 76.5986L193.754 83.438Z" fill="#22B9D4"/>
<path d="M178.176 95.5205L171.401 86.6055L169.596 88.0046C167.964 90.825 166.421 93.6983 165 96.6398L169.35 102.36L178.176 95.5205Z" fill="#22B9D4"/>
<path d="M110 216.425L128.254 275.705L186.985 257.28L168.736 198L110 216.425Z" fill="#FD773B"/>
<path d="M46 535.412L61.1754 585L110 569.588L94.8291 520L46 535.412Z" fill="#0E4A66"/>
<path d="M200.002 510.411C212.153 510.411 222.004 500.469 222.004 488.205C222.004 475.942 212.153 466 200.002 466C187.851 466 178 475.942 178 488.205C178 500.469 187.851 510.411 200.002 510.411Z" fill="#22B9D4"/>
<path d="M337 875C394.438 875 441 826.647 441 767C441 707.353 394.438 659 337 659C279.562 659 233 707.353 233 767C233 826.647 279.562 875 337 875Z" fill="#FD773B"/>
<path d="M113.438 930.905L102.055 1033.8L119.955 1026.95L126.684 966.17L113.438 930.905Z" fill="#22B9D4" fill-opacity="0.53"/>
<path d="M88.2778 863.908L68.0371 1046.82L85.9378 1039.97L101.52 899.173L88.2778 863.908Z" fill="#22B9D4" fill-opacity="0.53"/>
<path d="M55.152 868.856L34.0176 1059.84L51.9182 1052.99L73.0558 862L55.152 868.856Z" fill="#22B9D4" fill-opacity="0.53"/>
<path d="M21.1314 881.875L0 1072.86L17.9007 1066L39.0351 875.025L21.1314 881.875Z" fill="#22B9D4" fill-opacity="0.53"/>
</svg>
