<?xml version="1.0" encoding="UTF-8" standalone="no"?>
<svg
   width="52"
   height="42"
   viewBox="0 0 52 42"
   fill="none"
   version="1.1"
   id="svg12"
   sodipodi:docname="live-session-icon.svg"
   inkscape:version="1.2 (1:1.2+202205241504+da316b6974)"
   xmlns:inkscape="http://www.inkscape.org/namespaces/inkscape"
   xmlns:sodipodi="http://sodipodi.sourceforge.net/DTD/sodipodi-0.dtd"
   xmlns="http://www.w3.org/2000/svg"
   xmlns:svg="http://www.w3.org/2000/svg">
  <defs
     id="defs16" />
  <sodipodi:namedview
     id="namedview14"
     pagecolor="#00ffff"
     bordercolor="#666666"
     borderopacity="1.0"
     inkscape:showpageshadow="2"
     inkscape:pageopacity="0"
     inkscape:pagecheckerboard="0"
     inkscape:deskcolor="#d1d1d1"
     showgrid="false"
     showguides="false"
     inkscape:zoom="13.28094"
     inkscape:cx="46.645794"
     inkscape:cy="31.059548"
     inkscape:window-width="1864"
     inkscape:window-height="1016"
     inkscape:window-x="56"
     inkscape:window-y="27"
     inkscape:window-maximized="1"
     inkscape:current-layer="svg12" />
  <path
     d="M18.2559 21.0088C18.2559 16.465 21.6524 12.8496 25.7612 12.8496C29.8701 12.8496 33.2666 16.465 33.2666 21.0088C33.2666 25.5527 29.8701 29.168 25.7612 29.168C21.6524 29.168 18.2559 25.5527 18.2559 21.0088Z"
     fill="#FD773B"
     stroke="white"
     id="path2" />
  <path
     d="M15.3166 36.9916C14.7396 36.9598 14.1976 36.6 13.9101 36.0064L13.9101 36.0063C9.35811 26.614 9.35811 15.3996 13.9101 6.00728L13.9101 6.00722C14.3557 5.08745 15.3695 4.7722 16.1694 5.22547L16.1695 5.22548C16.9949 5.69315 17.3444 6.83064 16.89 7.76968C12.8713 16.0598 12.8713 25.952 16.8903 34.2421C17.1747 34.8297 17.1541 35.5385 16.8379 36.1043C16.5234 36.6671 15.9737 36.9909 15.4019 36.9915L15.3166 36.9916Z"
     fill="#22B9D4"
     stroke="white"
     id="path8" />
  <path
     d="m 45.700909,40.8434 c 0.56268,-0.054 1.08374,-0.4197 1.35726,-1.0069 l 1.8e-4,-3e-4 c 5.527276,-11.8395 5.527275,-25.8182 0,-37.6576 l -1.1e-4,5e-5 -0.0044,-0.01004 c -0.27282,-0.61948 -0.82133,-1.00659 -1.41351,-1.04774 -0.59089,-0.04106 -1.17552,0.26553 -1.51635,0.83708 -0.34302,0.57525 -0.37238,1.31284 -0.07357,1.91995 l 9e-5,-4e-5 0.0044,0.00931 c 5.02604,10.76463 5.0261,23.46823 1e-4,34.23293 -0.27391,0.5879 -0.24567,1.2902 0.07181,1.8484 0.31582,0.5553 0.86145,0.8741 1.42869,0.8747 z"
     fill="#22b9d4"
     stroke="#ffffff"
     id="path223" />
  <path
     d="M6.36813 40.8434C5.80545 40.7894 5.28439 40.4237 5.01087 39.8365L5.01069 39.8362C-0.516586 27.9967 -0.516585 14.018 5.01069 2.1786L5.0108 2.17865L5.01522 2.16861C5.28804 1.54913 5.83655 1.16202 6.42873 1.12087C7.01962 1.07981 7.60425 1.3864 7.94508 1.95795C8.2881 2.5332 8.31746 3.27079 8.01865 3.8779L8.01856 3.87786L8.01421 3.88717C2.9881 14.6518 2.98804 27.3554 8.01404 38.1201C8.28795 38.708 8.25971 39.4103 7.94223 39.9685C7.62641 40.5238 7.08078 40.8426 6.51354 40.8432L6.36813 40.8434Z"
     fill="#22B9D4"
     stroke="white"
     id="path10" />
  <path
     d="m 36.27232,36.9916 c 0.577,-0.0318 1.119,-0.3916 1.4065,-0.9852 v -10e-5 c 4.55199,-9.3923 4.55199,-20.6067 0,-29.99902 v -6e-5 C 37.23322,5.08745 36.21942,4.7722 35.41952,5.22547 l -10e-5,1e-5 c -0.8254,0.46767 -1.1749,1.60516 -0.7205,2.5442 4.0187,8.29012 4.0187,18.18232 -3e-4,26.47242 -0.2844,0.5876 -0.2638,1.2964 0.0524,1.8622 0.3145,0.5628 0.8642,0.8866 1.436,0.8872 z"
     fill="#22b9d4"
     stroke="#ffffff"
     id="path274" />
</svg>
