<?xml version="1.0" encoding="UTF-8" standalone="no"?>
<svg
   id="Layer_1"
   data-name="Layer 1"
   viewBox="0 0 934688.9 464884.84"
   version="1.1"
   sodipodi:docname="New Wave RGB_New Wave Learning - White - RGB.svg"
   width="934688.94"
   height="464884.84"
   xmlns:inkscape="http://www.inkscape.org/namespaces/inkscape"
   xmlns:sodipodi="http://sodipodi.sourceforge.net/DTD/sodipodi-0.dtd"
   xmlns="http://www.w3.org/2000/svg"
   xmlns:svg="http://www.w3.org/2000/svg"
   xmlns:rdf="http://www.w3.org/1999/02/22-rdf-syntax-ns#"
   xmlns:cc="http://creativecommons.org/ns#"
   xmlns:dc="http://purl.org/dc/elements/1.1/">
  <sodipodi:namedview
     id="namedview41"
     pagecolor="#000000"
     bordercolor="#666666"
     borderopacity="1.0"
     inkscape:showpageshadow="false"
     inkscape:pageopacity="1"
     inkscape:pagecheckerboard="false"
     inkscape:deskcolor="#d1d1d1"
     showgrid="false"
     showguides="true"
     showborder="false"
     borderlayer="false" />
  <defs
     id="defs4">
    <style
       id="style2">.cls-1{fill:#fff;}</style>
  </defs>
  <title
     id="title6">New Wave RGB</title>
  <g
     id="g219"
     transform="translate(-251345.09,-119852.28)">
    <path
       class="cls-1"
       d="M 424.51,651.13 V 686 h 13.92 v 9.83 H 412.9 v -44.7 z"
       id="path8" />
    <path
       class="cls-1"
       d="m 476.91,661 h -13.8 v 7.47 h 13 v 9.83 h -13 v 7.7 h 13.8 v 9.83 H 451.5 v -44.7 h 25.41 z"
       id="path10" />
    <path
       class="cls-1"
       d="M 519.09,688 H 502.5 l -2.67,7.76 h -12.38 l 17,-44.67 h 12.68 l 17,44.67 h -12.38 z m -3.09,-8.79 -5.22,-14.87 -5.21,14.87 z"
       id="path12" />
    <path
       class="cls-1"
       d="m 581.82,695.8 h -14.46 l -11.08,-17.18 v 17.18 h -11.61 v -44.67 h 18.07 a 17.77,17.77 0 0 1 6.52,1.1 12.25,12.25 0 0 1 7.31,7.37 15.12,15.12 0 0 1 0.92,5.33 13.1,13.1 0 0 1 -2.49,8.27 12.34,12.34 0 0 1 -7.25,4.29 z m -25.54,-24.7 h 2.2 a 8.46,8.46 0 0 0 5.27,-1.43 5.45,5.45 0 0 0 0,-8.17 8.46,8.46 0 0 0 -5.27,-1.42 h -2.2 z"
       id="path14" />
    <path
       class="cls-1"
       d="M 592.35,695.8 V 651.13 H 604 l 21.44,27.31 V 651.13 H 637 V 695.8 H 625.41 L 604,668.49 v 27.31 z"
       id="path16" />
    <path
       class="cls-1"
       d="M 663.57,651.13 V 695.8 H 652 v -44.67 z"
       id="path18" />
    <path
       class="cls-1"
       d="m 678.56,695.8 v -44.67 h 11.61 l 21.44,27.31 v -27.31 h 11.56 v 44.67 h -11.56 l -21.44,-27.31 v 27.31 z"
       id="path20" />
    <path
       class="cls-1"
       d="m 759,670.8 h 23 q 0,3.56 -0.29,6.46 a 22.7,22.7 0 0 1 -1.19,5.39 21.6,21.6 0 0 1 -3.37,6.19 19.85,19.85 0 0 1 -5,4.5 23.39,23.39 0 0 1 -6.31,2.76 27.14,27.14 0 0 1 -7.23,0.94 25.55,25.55 0 0 1 -9.51,-1.71 A 21.24,21.24 0 0 1 737,683 a 27.85,27.85 0 0 1 0,-19.19 20.94,20.94 0 0 1 4.8,-7.44 21.91,21.91 0 0 1 7.49,-4.8 26.7,26.7 0 0 1 9.78,-1.71 24.15,24.15 0 0 1 12.26,3 20.82,20.82 0 0 1 8.35,9.36 l -11,4.56 a 11.24,11.24 0 0 0 -4,-5.27 10,10 0 0 0 -5.68,-1.51 11.11,11.11 0 0 0 -4.74,1 10.36,10.36 0 0 0 -3.65,2.78 13.77,13.77 0 0 0 -2.37,4.35 19.31,19.31 0 0 0 -0.11,11 11.78,11.78 0 0 0 2.22,4.21 10,10 0 0 0 3.65,2.66 12.44,12.44 0 0 0 5.1,1 13.88,13.88 0 0 0 3.31,-0.38 8.69,8.69 0 0 0 2.88,-1.25 7,7 0 0 0 2.1,-2.22 9,9 0 0 0 1.13,-3.32 H 759 Z"
       id="path22" />
    <path
       class="cls-1"
       d="m 847.85,187.07 a 2.56,2.56 0 0 0 0,-2.29 l -19.23,-38.51 a 2.68,2.68 0 0 0 -2.3,-1.42 h -38.51 a 2.58,2.58 0 0 0 -2.3,1.42 l -63.17,126.35 c 0,0 -62.78,-125.57 -63.18,-126.35 a 2.68,2.68 0 0 0 -2.29,-1.42 h -38.52 a 2.56,2.56 0 0 0 -2.29,1.42 L 552.88,272.62 489.76,146.38 a 2.56,2.56 0 0 0 -2.35,-1.53 H 448.9 a 2.55,2.55 0 0 0 -2.29,1.41 L 342.7,354.06 a 2.62,2.62 0 0 0 0,2.29 L 361.87,395 a 2.6,2.6 0 0 0 2.3,1.44 h 38.52 A 2.59,2.59 0 0 0 405,395 l 63.16,-126.3 c 0,0 62.7,125.42 63.17,126.35 a 2.67,2.67 0 0 0 2.3,1.41 h 38.51 a 2.57,2.57 0 0 0 2.3,-1.41 l 63.17,-126.35 63.18,126.35 a 2.75,2.75 0 0 0 2.29,1.41 h 38.49 a 2.55,2.55 0 0 0 2.29,-1.41 z m -23.14,34.81 H 792 l 5.13,-10.28 h 32.74 z M 817,237.28 H 784.26 L 789.4,227 h 32.74 z m -7.7,15.41 h -32.74 l 5.14,-10.28 h 32.74 z m -7.7,15.4 H 768.86 L 774,257.82 h 32.74 z m -7.7,15.41 h -32.74 l 5.13,-10.27 H 799 Z m -7.71,15.4 h -32.74 l 5.14,-10.27 h 32.74 z m -7.7,15.41 H 745.75 L 750.89,304 h 32.74 z m -7.7,15.4 h -32.74 l 5.13,-10.27 h 32.75 z m -7.7,15.41 h -32.75 l 5.14,-10.27 h 32.74 z m -7.71,15.4 h -32.74 l 5.14,-10.27 h 32.74 z m -7.7,15.41 h -32.74 l 5.14,-10.27 h 32.74 z m 52,-169.46 5.13,-10.27 h 32.75 l -5.14,10.27 z m 26.65,-53.31 3.54,7.1 h -7.09 z m -6.11,12.23 h 12.22 l 5.13,10.27 h -22.5 z m -7.7,15.41 h 27.61 l 2.56,5.13 -2.57,5.14 H 807.37 Z M 709.2,298.9 H 697 l -5.14,-10.27 h 22.5 z m -2.57,5.1 -3.55,7.1 -3.55,-7.1 z m 10.27,-20.5 h -27.63 l -5.14,-10.27 h 32.77 l 2.57,5.13 z M 632.17,268.09 H 599.4 l 5.14,-10.27 h 32.77 z m -7.7,15.41 H 591.7 l 5.13,-10.27 h 32.78 z m -7.7,15.4 H 584 l 5.13,-10.27 h 32.77 z m -7.7,15.41 H 576.29 L 581.43,304 h 32.77 z m -7.71,15.4 h -32.77 l 5.14,-10.27 h 32.77 z m -7.7,15.41 H 560.89 L 566,334.85 h 32.8 z m -7.7,15.4 h -32.77 l 5.13,-10.27 h 32.77 z m -7.7,15.41 h -32.78 l 5.14,-10.27 h 32.77 z M 639.87,252.69 H 607.1 l 5.14,-10.28 H 645 Z m 7.71,-15.41 H 614.81 L 619.94,227 h 32.77 z m 12.84,-77 h -7.1 l 3.55,-7.1 z m -9.67,5.13 H 663 l 5.14,10.27 h -22.5 z m -7.7,15.41 h 27.64 l 5.13,10.27 h -37.91 z m -7.7,15.4 h 43 l 5.13,10.27 h -53.27 z m -7.7,15.4 h 58.44 l 5.14,10.28 h -68.72 z m 66.14,15.38 5.14,10.27 H 666.16 L 661,227 Z m 7.71,15.4 5.13,10.28 h -32.77 l -5.14,-10.28 z m 7.7,15.41 5.13,10.27 h -32.77 l -5.13,-10.27 z M 539.74,298.9 h -12.23 l -5.13,-10.27 h 22.5 z m -2.56,5.1 -3.55,7.1 -3.55,-7.1 z m 10.26,-20.53 h -27.63 l -5.14,-10.27 h 32.77 l 2.57,5.13 z M 462.72,268.06 H 430 l 5.13,-10.27 H 467.9 Z M 455,283.5 h -32.76 l 5.14,-10.27 h 32.77 z m -7.7,15.4 h -32.76 l 5.14,-10.27 h 32.77 z m -7.7,15.41 H 406.84 L 412,304 h 32.78 z m -7.7,15.4 h -32.76 l 5.13,-10.27 H 437 Z m -7.71,15.41 h -32.76 l 5.14,-10.27 h 32.77 z m -7.7,15.4 H 389 l -2.64,-5.31 2.49,-5 h 32.77 z m -7.7,15.41 h -12.13 l -5.1,-10.27 h 22.37 z m -6.1,12.19 -3.5,-7.06 h 7 z m 67.72,-135.43 h -32.76 l 5.13,-10.28 h 32.77 z m 7.7,-15.41 H 445.35 L 450.49,227 h 32.77 z m 3.18,-71.89 h 12.23 l 5.13,10.27 h -22.5 z m -7.71,15.41 h 27.64 l 5.13,10.27 h -37.9 z m -7.7,15.4 h 43 l 5.14,10.27 h -53.26 z m -7.7,15.4 h 58.44 l 5.14,10.28 h -68.71 z m 66.16,15.4 5.13,10.27 H 496.7 L 491.57,227 Z m 7.7,15.4 5.14,10.28 H 504.4 l -5.13,-10.28 z m 7.7,15.41 5.14,10.27 H 512.11 L 507,257.82 Z M 491,160.26 h -7.1 l 3.55,-7.1 z M 450.49,150 h 32.77 L 381.93,352.64 H 349.15 Z M 349.13,357.78 h 32.79 l 16.64,33.55 H 365.77 Z M 487.41,230.18 531.33,318 a 2.56,2.56 0 0 0 4.59,0 l 7.67,-15.34 a 1.54,1.54 0 0 0 0.17,-0.34 L 619.94,150 h 32.77 L 533.63,388.16 471,263 Z m 83.14,161.15 h -32.77 l 5.14,-10.27 h 32.77 z M 656.87,230.18 700.79,318 a 2.56,2.56 0 0 0 4.59,0 l 84,-168 h 32.77 L 703.08,388.16 640.48,263 Z M 740,391.33 h -32.76 l 5.13,-10.27 h 32.75 z"
       id="path24" />
    <path
       class="cls-1"
       d="m 202.73,592.66 v -104.6 l 71.43,74.73 v -68.07 h 14.78 v 103.91 l -71.43,-74.54 v 68.57 z"
       id="path26" />
    <path
       class="cls-1"
       d="m 377.73,508.61 h -39.26 v 23.54 h 38.12 V 546 h -38.12 v 32.73 h 39.26 v 13.89 h -54 v -97.9 h 54 z"
       id="path28" />
    <path
       class="cls-1"
       d="m 420.09,494.72 25.5,65.47 26.64,-70.19 25.5,70.23 27.09,-65.47 h 16 L 497.1,598.88 471.91,529.48 445.65,598.94 404,494.72 Z"
       id="path30" />
    <path
       class="cls-1"
       d="m 610.57,494.72 25.5,65.47 26.64,-70.19 25.5,70.23 27.09,-65.47 h 16.05 l -43.77,104.12 -25.19,-69.4 -26.26,69.46 -41.61,-104.22 z"
       id="path32" />
    <path
       class="cls-1"
       d="m 797.11,568.88 h -41.93 l -10.91,23.78 h -15.92 l 48.46,-104.09 46.75,104.09 h -16.17 z m -6,-13.9 -14.52,-33.3 -15.26,33.32 z"
       id="path34" />
    <path
       class="cls-1"
       d="m 836.74,494.72 27.08,67.88 27.47,-67.88 h 16.18 l -44,105.3 -43,-105.3 z"
       id="path36" />
    <path
       class="cls-1"
       d="m 987.82,508.61 h -39.27 v 23.54 h 38.13 V 546 h -38.13 v 32.73 h 39.27 v 13.89 h -54.05 v -97.9 h 54.05 z"
       id="path38" />
  </g>
  <metadata
     id="metadata147">
    <rdf:RDF>
      <cc:Work
         rdf:about="">
        <dc:title>New Wave RGB</dc:title>
      </cc:Work>
    </rdf:RDF>
  </metadata>
</svg>
